# xmcd
#
# Track frame offsets:
# 150
# 17125
# 34876
# 44229
# 66618
# 81731
# 95602
# 109821
# 128271
# 142178
# 153992
# 169377
# 191065
# 208252
# 220410
# 238849
# 256002
# 268256
# 283109
# 300631
#
# Disc length: 4207 seconds
#
#
# Revision: 0
# Processed by: cddbd v1.5.1PL2 Copyright (c) Steve Scherf et al.
# Submitted via: FreeRIP 2.944 
#
DISCID=45106d14
DTITLE=The Blues Band - The Blues Band Box - Disk 1
DYEAR=2005
DGENRE=Blues
TTITLE0=The Blues Band
TTITLE1=Talk To Me Baby
TTITLE2=Come On In
TTITLE3=I Don't Know
TTITLE4=Someday Baby
TTITLE5=Death Letter
TTITLE6=Two Bones And A Pick
TTITLE7=Noah Lewis Blues
TTITLE8=Twenty Nine Ways
TTITLE9=Find Yourself Another Fool
TTITLE10=Treat Her Right
TTITLE11=That's All Right
TTITLE12=Green Stuff
TTITLE13=I'm Ready
TTITLE14=SUS Blues
TTITLE15=Nadine
TTITLE16=Talking Woman Blues
TTITLE17=Itchy Feet
TTITLE18=So Lonely
TTITLE19=Maggies's Farm
EXTD=BGO Records\nBGOBBCD1-1
EXTT0=Jones/Flecher,Flint,Kelly,McGuinness
EXTT1=James
EXTT2=Stonebridge,McGuinness,Jones
EXTT3=Maban
EXTT4=Estes
EXTT5=Son House
EXTT6=T-Bone Walker
EXTT7=Jones
EXTT8=Dixon
EXTT9=Stonebridge,McGuinness
EXTT10=Head
EXTT11=Rogers
EXTT12=Fletcher
EXTT13=Morganfield
EXTT14=Kelly
EXTT15=Berry
EXTT16=Lowell Fulson
EXTT17=Jones/Flecher,Flint,Kelly,McGuinness
EXTT18=Fletcher/Gurl/Fletcher
EXTT19=Dylan
PLAYORDER=
